<?xml version="1.0" encoding="UTF-8" standalone="no"?>
<!DOCTYPE svg PUBLIC "-//W3C//DTD SVG 1.1//EN" "http://www.w3.org/Graphics/SVG/1.1/DTD/svg11.dtd">
<svg width="100%" height="100%" viewBox="0 0 3600 3600" version="1.1" xmlns="http://www.w3.org/2000/svg" xmlns:xlink="http://www.w3.org/1999/xlink" xml:space="preserve" xmlns:serif="http://www.serif.com/" style="fill-rule:evenodd;clip-rule:evenodd;stroke-linejoin:round;stroke-miterlimit:2;">
    <g transform="matrix(1,0,0,1,-36509,-12287)">
        <g id="Page-3" serif:id="Page 3" transform="matrix(4.166667,0,0,4.166667,36509,12287)">
            <rect x="0" y="0" width="864" height="864" style="fill:none;"/>
            <g id="Layer-1" serif:id="Layer 1">
            </g>
            <g transform="matrix(0.197236,0,0,0.197236,-4739.136757,33.5419)">
                <path d="M26218,191C27232.42,191 28056,1014.58 28056,2029C28056,3043.42 27232.42,3867 26218,3867C25203.58,3867 24380,3043.42 24380,2029C24380,1014.58 25203.58,191 26218,191ZM26218,317.281C25273.276,317.281 24506.281,1084.276 24506.281,2029C24506.281,2973.724 25273.276,3740.719 26218,3740.719C27162.724,3740.719 27929.719,2973.724 27929.719,2029C27929.719,1084.276 27162.724,317.281 26218,317.281ZM27172.941,2197.682C27238.417,2385.023 27211.037,2594.288 27099.698,2757.462C27037.577,2848.505 26952.668,2921.635 26847.334,2974.819C26733.973,3032.053 26599.527,3064.517 26447.577,3071.359L26447.577,3400.545L26001.014,3400.545L26001.014,3082.072L24989.09,3082.072L25430.031,2638.937L26001.014,2638.937L26001.014,2301.177C25948.854,2290.647 25776.044,2273.063 25605.077,2195.449C25485.057,2140.963 25389.303,2078.071 25320.476,2008.524C25233.515,1920.653 25189.421,1821.909 25189.421,1715.029C25189.421,1455.936 25239.437,1295.759 25356.657,1179.445C25512.675,1024.637 25790.566,954.171 26231.229,957.538C27104.347,964.303 27416.124,957.498 27419.172,957.428L27446.91,956.792L27015.18,1380.127L26447.577,1380.127L26447.577,1723.235C26482.505,1730.753 26615.313,1761.631 26757.793,1824.424C26855.13,1867.323 26938,1916.541 27004.098,1970.712C27087.337,2038.937 27144.147,2115.298 27172.941,2197.682ZM27040.673,2193.241C26993.863,2113.73 26920.277,2042.186 26821.961,1980.588C26699.77,1904.034 26538.624,1842.549 26343,1797.841L26334.414,1795.878L26334.48,1787.033L26334.48,1274.322L26977.979,1274.322L27183.775,1060.291L25970.283,1060.291C25958.364,1061.293 25686.928,1085.979 25591.086,1239.343C25548.106,1308.112 25546.451,1393.655 25586.163,1493.597C25655.86,1669.02 25946.693,1765.626 26254.607,1867.904C26450.505,1932.974 26653.077,2000.26 26812.754,2092.333C26968.15,2181.932 27062.49,2284.638 27099.23,2404.808C27099.866,2353.696 27089.877,2276.824 27040.673,2193.241ZM26120.457,1278.547L26120.457,1306.223L26120.877,1306.223L26120.877,1722.811L26120.457,1722.811L26005.897,1676.988L26005.897,1676.878L26001.014,1674.923L26001.014,1384.572C25922.388,1370.551 25857.752,1379.948 25808.823,1412.701C25742.513,1457.084 25728.091,1530.254 25727.952,1530.988L25725.247,1545.389L25712.191,1538.748C25652.918,1508.51 25658.049,1438.41 25658.294,1435.439L25658.44,1433.695L25659.12,1432.083C25694.596,1348.069 25784.476,1294.72 25919.051,1277.805C26019.026,1265.235 26107.244,1276.774 26110.95,1277.271L26120.457,1278.547ZM26120.877,2193.285L26120.877,2740.203L25470.949,2740.203L25252.101,2957.622L26120.877,2957.622L26120.877,3289.034L26334.48,3289.034L26334.48,2957.622L26423.396,2957.622C26425.545,2957.582 26658.603,2951.836 26766.382,2813.578C26820.126,2744.637 26834.322,2653.59 26808.58,2542.968C26779.266,2417.001 26673.998,2311.908 26486.763,2221.688C26321.355,2141.983 26112.946,2084.113 25929.073,2033.056C25762.908,1986.915 25605.958,1943.336 25502.642,1890.474C25378.309,1826.862 25320.315,1742.263 25293.56,1682.496C25286.959,1667.744 25281.875,1653.789 25277.964,1640.99C25277.964,1640.99 25189.586,2072.739 26120.877,2193.285ZM26679.919,2496.034C26699.408,2557.672 26693.403,2609.215 26662.079,2649.237C26597.678,2731.523 26444.332,2741.015 26377.035,2741.015C26358.727,2741.015 26346.794,2740.313 26344.747,2740.181L26334.48,2739.527L26334.48,2297.676L26447.577,2339.632L26447.577,2635.805C26628.226,2639.837 26657.51,2503.241 26658.706,2497.225L26667.039,2455.335L26679.919,2496.034ZM27770.876,3539.727L27770.876,3565.047L27728.09,3565.047L27728.09,3682.728L27698.014,3682.728L27698.014,3565.047L27655.035,3565.047L27655.035,3539.727L27770.876,3539.727ZM27815.698,3682.731L27787.853,3682.731L27787.853,3539.729L27831.319,3539.729L27857.318,3652.168L27883.125,3539.729L27926.104,3539.729L27926.104,3682.731L27898.259,3682.731L27898.259,3586.004C27898.259,3583.225 27898.295,3579.327 27898.355,3574.312C27898.421,3569.303 27898.452,3565.435 27898.452,3562.722L27871.388,3682.731L27842.377,3682.731L27815.506,3562.722C27815.506,3565.435 27815.536,3569.303 27815.602,3574.312C27815.668,3579.327 27815.698,3583.225 27815.698,3586.004L27815.698,3682.731Z" style="fill:url(#_Linear1);stroke:rgb(180,84,36);stroke-width:1.22px;"/>
            </g>
        </g>
    </g>
    <defs>
        <linearGradient id="_Linear1" x1="0" y1="0" x2="1" y2="0" gradientUnits="userSpaceOnUse" gradientTransform="matrix(5296.29269,0,0,5296.299978,23680.92649,2029)"><stop offset="0" style="stop-color:rgb(0,229,192);stop-opacity:1"/><stop offset="1" style="stop-color:rgb(149,0,211);stop-opacity:1"/></linearGradient>
    </defs>
</svg>
