<?xml version="1.0" encoding="UTF-8" standalone="no"?><!DOCTYPE svg PUBLIC "-//W3C//DTD SVG 1.1//EN" "http://www.w3.org/Graphics/SVG/1.1/DTD/svg11.dtd"><svg width="100%" height="100%" viewBox="0 0 3600 3600" version="1.1" xmlns="http://www.w3.org/2000/svg" xmlns:xlink="http://www.w3.org/1999/xlink" xml:space="preserve" xmlns:serif="http://www.serif.com/" style="fill-rule:evenodd;clip-rule:evenodd;stroke-linejoin:round;stroke-miterlimit:2;"><rect id="Page-3" serif:id="Page 3" x="0" y="0" width="3600" height="3600" style="fill:none;"/><g id="Layer-1" serif:id="Layer 1"></g><path d="M1800,296.725c833.668,0 1510.5,676.832 1510.5,1510.5c0,833.668 -676.832,1510.5 -1510.5,1510.5c-833.668,0 -1510.5,-676.832 -1510.5,-1510.5c0,-833.668 676.832,-1510.5 1510.5,-1510.5Zm-0,103.78c-776.39,0 -1406.72,630.33 -1406.72,1406.72c0,776.39 630.33,1406.72 1406.72,1406.72c776.39,0 1406.72,-630.33 1406.72,-1406.72c0,-776.39 -630.33,-1406.72 -1406.72,-1406.72Zm784.787,1545.346c53.809,153.961 31.308,325.938 -60.192,460.037c-51.052,74.821 -120.832,134.92 -207.397,178.627c-93.162,47.036 -203.652,73.715 -328.527,79.338l0,270.53l-366.993,0l0,-261.726l-831.617,0l362.373,-364.175l469.244,0l0,-277.577c-42.867,-8.654 -184.884,-23.105 -325.388,-86.89c-98.634,-44.777 -177.327,-96.463 -233.891,-153.618c-71.465,-72.213 -107.703,-153.363 -107.703,-241.199c0,-212.927 41.103,-344.564 137.437,-440.152c128.218,-127.224 356.594,-185.134 718.739,-182.367c717.543,5.56 973.767,-0.033 976.272,-0.09l22.796,-0.523l-354.804,347.904l-466.465,0l0,281.972c28.704,6.179 137.848,31.554 254.941,83.159c79.993,35.255 148.097,75.704 202.417,120.222c68.408,56.068 115.095,118.823 138.759,186.527Zm-108.7,-3.65c-38.469,-65.344 -98.944,-124.139 -179.742,-174.762c-100.419,-62.914 -232.851,-113.443 -393.618,-150.185l-7.056,-1.613l0.054,-7.269l0,-421.355l528.838,0l169.127,-175.894l-997.268,0c-9.795,0.823 -232.866,21.11 -311.631,147.148c-35.321,56.516 -36.682,126.816 -4.046,208.95c57.279,144.165 296.291,223.558 549.339,307.612c160.992,53.476 327.47,108.772 458.695,184.44c127.708,73.634 205.238,158.04 235.431,256.797c0.523,-42.005 -7.687,-105.18 -48.123,-173.869Zm-756.25,-751.711l0,22.744l0.345,0l0,342.359l-0.345,0l-94.147,-37.658l0,-0.09l-4.013,-1.607l0,-238.615c-64.617,-11.522 -117.735,-3.8 -157.947,23.117c-54.494,36.475 -66.347,96.607 -66.461,97.211l-2.223,11.835l-10.729,-5.458c-48.712,-24.85 -44.495,-82.459 -44.293,-84.901l0.12,-1.433l0.559,-1.325c29.154,-69.044 103.02,-112.887 213.615,-126.789c82.162,-10.33 154.66,-0.847 157.706,-0.439l7.813,1.048Zm0.345,751.747l0,449.467l-534.122,0l-179.853,178.678l713.975,0l0,272.36l175.543,0l0,-272.36l73.072,0c1.766,-0.033 193.298,-4.755 281.873,-118.378c44.167,-56.657 55.834,-131.48 34.678,-222.392c-24.09,-103.521 -110.601,-189.888 -264.475,-264.033c-135.935,-65.503 -307.209,-113.061 -458.319,-155.021c-136.557,-37.919 -265.541,-73.733 -350.448,-117.177c-102.179,-52.277 -149.839,-121.802 -171.827,-170.92c-5.425,-12.123 -9.603,-23.592 -12.817,-34.111c0,0 -72.631,354.819 692.72,453.886Zm459.431,248.804c16.016,50.655 11.081,93.014 -14.661,125.905c-52.926,67.624 -178.949,75.424 -234.254,75.424c-15.046,0 -24.853,-0.577 -26.535,-0.685l-8.438,-0.538l0,-363.121l92.945,34.48l0,243.4c148.461,3.313 172.527,-108.943 173.509,-113.887l6.849,-34.426l10.585,33.447Zm896.567,857.725l0,20.808l-35.162,0l0,96.713l-24.717,0l0,-96.713l-35.321,0l0,-20.808l95.2,0Zm36.835,117.523l-22.883,0l0,-117.521l35.721,0l21.367,92.404l21.208,-92.404l35.321,0l0,117.521l-22.883,0l0,-79.492c0,-2.283 0.029,-5.488 0.079,-9.608c0.054,-4.117 0.079,-7.296 0.079,-9.525l-22.242,98.625l-23.842,0l-22.083,-98.625c0,2.229 0.025,5.408 0.079,9.525c0.054,4.121 0.079,7.325 0.079,9.608l0,79.492Z" style="fill:url(#_Linear1);stroke:#b45424;stroke-width:1px;"/><defs><linearGradient id="_Linear1" x1="0" y1="0" x2="1" y2="0" gradientUnits="userSpaceOnUse" gradientTransform="matrix(4578.044869,0,0,4578.051169,-140.356782,1347.487006)"><stop offset="0" style="stop-color:#ff6d00;stop-opacity:1"/><stop offset="1" style="stop-color:#4c2611;stop-opacity:1"/></linearGradient></defs></svg>