<?xml version="1.0" encoding="UTF-8" standalone="no"?><!DOCTYPE svg PUBLIC "-//W3C//DTD SVG 1.1//EN" "http://www.w3.org/Graphics/SVG/1.1/DTD/svg11.dtd"><svg width="100%" height="100%" viewBox="0 0 3600 3600" version="1.1" xmlns="http://www.w3.org/2000/svg" xmlns:xlink="http://www.w3.org/1999/xlink" xml:space="preserve" xmlns:serif="http://www.serif.com/" style="fill-rule:evenodd;clip-rule:evenodd;stroke-linejoin:round;stroke-miterlimit:2;"><rect id="Page-2" serif:id="Page 2" x="0" y="0" width="3600" height="3600" style="fill:none;"/><g id="Layer-1" serif:id="Layer 1"></g><path d="M1800.002,296.725c836.221,0 1514.112,677.892 1514.112,1514.112c0,836.221 -677.892,1514.112 -1514.112,1514.112c-836.225,0 -1514.117,-677.892 -1514.117,-1514.112c0,-836.221 677.892,-1514.112 1514.117,-1514.112Zm406.329,1302.354c-113.446,-50 -219.188,-74.583 -247,-80.567l0,-273.192l451.937,0l343.75,-337.067l-22.083,0.504c-2.429,0.054 -250.671,5.479 -945.862,0.092c-350.863,-2.683 -572.129,53.421 -696.35,176.683c-93.333,92.612 -133.154,220.146 -133.154,426.446c0,85.096 35.104,163.721 104.346,233.683c54.8,55.375 131.042,105.45 226.604,148.833c136.125,61.796 273.721,75.8 315.254,84.183l0,268.929l-454.629,0l-351.087,352.833l805.717,0l0,253.575l355.558,0l0,-262.104c120.987,-5.45 228.037,-31.296 318.296,-76.867c83.871,-42.346 151.475,-100.575 200.938,-173.062c88.65,-129.925 110.45,-296.546 58.317,-445.708c-22.925,-65.596 -68.158,-126.4 -134.437,-180.717c-52.625,-43.133 -118.608,-82.321 -196.113,-116.479Zm-215.8,316.307c149.083,71.838 232.9,155.512 256.238,255.808c20.496,88.079 9.192,160.575 -33.6,215.467c-85.812,110.083 -271.379,114.658 -273.087,114.692l-70.8,0l0,263.875l-170.075,0l0,-263.875l-691.733,0l174.25,-173.112l517.483,0l0,-435.471c-741.512,-95.979 -671.142,-439.746 -671.142,-439.746c3.112,10.192 7.158,21.304 12.417,33.05c21.304,47.587 67.479,114.946 166.475,165.596c82.263,42.088 207.229,76.787 339.533,113.525c146.404,40.654 312.342,86.733 444.042,150.192Zm139.592,340.425c24.942,-31.867 29.721,-72.908 14.204,-121.983l-10.254,-32.408l-6.638,33.354c-0.95,4.792 -24.267,113.55 -168.104,110.342l0,-235.821l-90.05,-33.404l0,351.812l8.175,0.521c1.629,0.104 11.133,0.662 25.708,0.662c53.583,0 175.683,-7.558 226.958,-73.075Zm-260.841,-1094.735l0,408.233l-0.054,7.042l6.837,1.562c155.758,35.596 284.067,84.55 381.358,145.504c78.283,49.046 136.871,106.012 174.142,169.321c39.179,66.55 47.133,127.758 46.625,168.454c-29.254,-95.683 -104.371,-177.458 -228.096,-248.8c-127.142,-73.308 -288.429,-126.883 -444.408,-178.696c-245.167,-81.433 -476.733,-158.354 -532.229,-298.029c-31.617,-79.575 -30.3,-147.687 3.921,-202.442c76.313,-122.108 292.433,-141.767 301.925,-142.563l966.204,0l-163.858,170.412l-512.367,0Zm-170.075,357.096l0,-331.696l-0.333,0l0,-22.033l-7.571,-1.017c-2.95,-0.396 -73.192,-9.583 -152.796,0.425c-107.146,13.467 -178.713,55.946 -206.958,122.842l-0.542,1.279l-0.117,1.392c-0.196,2.362 -4.279,58.179 42.912,82.254l10.396,5.288l2.154,-11.467c0.113,-0.583 11.596,-58.846 64.392,-94.183c38.958,-26.075 90.421,-33.558 153.029,-22.396l0,231.183l3.883,1.558l0,0.083l91.217,36.487l0.333,0Zm1373.371,1537.207l0,20.808l-35.163,0l0,96.712l-24.717,0l0,-96.712l-35.321,0l0,-20.808l95.2,0Zm36.835,117.523l-22.883,0l0,-117.521l35.721,0l21.367,92.404l21.208,-92.404l35.321,0l0,117.521l-22.883,0l0,-79.492c0,-2.283 0.029,-5.488 0.079,-9.608c0.054,-4.117 0.079,-7.296 0.079,-9.525l-22.242,98.625l-23.842,0l-22.083,-98.625c0,2.229 0.025,5.408 0.079,9.525c0.054,4.121 0.079,7.325 0.079,9.608l0,79.492Z" style="fill:url(#_Linear1);stroke:#b45424;stroke-width:1px;"/><defs><linearGradient id="_Linear1" x1="0" y1="0" x2="1" y2="0" gradientUnits="userSpaceOnUse" gradientTransform="matrix(4589,0,0,4589,-145,1350)"><stop offset="0" style="stop-color:#ff6d00;stop-opacity:1"/><stop offset="1" style="stop-color:#4c2611;stop-opacity:1"/></linearGradient></defs></svg>