<?xml version="1.0" encoding="UTF-8"?>
<svg id="Layer_1" xmlns="http://www.w3.org/2000/svg" version="1.1" viewBox="0 0 864 864">
  <!-- Generator: Adobe Illustrator 30.0.0, SVG Export Plug-In . SVG Version: 2.1.1 Build 123)  -->
  <defs>
    <style>
      .st0 {
        fill: #f37321;
      }
    </style>
  </defs>
  <g>
    <path class="st0" d="M441.45,276.06h122.97l39.33-40.9h-231.89c-2.28.19-54.15,4.91-72.46,34.22-8.21,13.14-8.53,29.49-.94,48.59,13.32,33.52,68.9,51.98,127.73,71.53,37.44,12.43,76.14,25.29,106.66,42.89,29.69,17.12,47.72,36.75,54.74,59.71.12-9.77-1.79-24.46-11.19-40.43-8.94-15.19-23.01-28.87-41.79-40.64-23.35-14.63-54.14-26.38-91.53-34.92l-1.64-.38v-1.69s.01-97.98.01-97.98ZM400.63,361.76h-.08l-21.89-8.76v-.02l-.93-.37v-55.48c-15.03-2.68-27.38-.88-36.73,5.38-12.67,8.48-15.43,22.46-15.45,22.6l-.52,2.75-2.49-1.27c-11.33-5.78-10.35-19.17-10.3-19.74l.03-.33.13-.31c6.78-16.05,23.95-26.25,49.67-29.48,19.1-2.4,35.96-.2,36.67-.1l1.82.24v5.29h.08v79.61Z"/>
    <path class="st0" d="M470.55,457.09c-31.61-15.23-71.43-26.29-106.57-36.05-31.75-8.82-61.75-17.15-81.49-27.25-23.76-12.16-34.84-28.32-39.95-39.74-1.26-2.82-2.23-5.49-2.98-7.93,0,0-16.89,82.5,161.07,105.54v104.51h-124.2l-41.82,41.55h166.02v63.33h40.82v-63.33h16.99c.41,0,44.95-1.11,65.54-27.53,10.27-13.17,12.98-30.57,8.06-51.71-5.6-24.07-25.72-44.15-61.5-61.39ZM504.05,538.79c-12.31,15.72-41.61,17.54-54.47,17.54-3.5,0-5.78-.13-6.17-.16l-1.96-.13v-84.43l21.61,8.02v56.6c34.52.77,40.12-25.33,40.35-26.48l1.59-8,2.46,7.78c3.72,11.78,2.58,21.63-3.41,29.28Z"/>
    <path class="st0" d="M424.82,68.61c-200.69,0-363.39,162.69-363.39,363.39s162.69,363.39,363.39,363.39,363.39-162.69,363.39-363.39S625.51,68.61,424.82,68.61ZM522.34,381.18c18.6,8.2,34.44,17.6,47.07,27.95,15.91,13.04,26.76,27.63,32.26,43.37,12.51,35.8,7.28,75.79-14,106.97-11.87,17.4-28.1,31.37-48.22,41.53-21.66,10.94-47.35,17.14-76.39,18.45v62.9h-85.33v-60.86h-193.37l84.26-84.68h109.11v-64.54c-9.97-2.01-42.99-5.37-75.66-20.2-22.93-10.41-41.23-22.43-54.39-35.72-16.62-16.79-25.04-35.66-25.04-56.08,0-49.51,9.56-80.12,31.96-102.35,29.81-29.58,82.92-43.05,167.12-42.4,166.85,1.29,226.42,0,227.01-.02l5.3-.12-82.5,80.9h-108.47v65.57c6.67,1.44,32.05,7.34,59.28,19.34Z"/>
  </g>
  <g>
    <path class="st0" d="M738.62,719.17v4.99h-8.44v23.21h-5.93v-23.21h-8.48v-4.99h22.85Z"/>
    <path class="st0" d="M747.46,747.38h-5.49v-28.21h8.57l5.13,22.18,5.09-22.18h8.48v28.21h-5.49v-19.08c0-.55,0-1.32.02-2.31s.02-1.75.02-2.29l-5.34,23.67h-5.72l-5.3-23.67c0,.54,0,1.3.02,2.29s.02,1.76.02,2.31v19.08Z"/>
  </g>
</svg>